<svg width="449" height="117" viewBox="0 0 449 117" fill="none" xmlns="http://www.w3.org/2000/svg">
<path d="M78.104 93L58.808 44.04H74.264L89.336 89.736H81.272L96.248 44.04H111.32L92.024 93H78.104ZM138.425 93.96C132.985 93.96 128.249 92.904 124.217 90.792C120.185 88.616 117.049 85.608 114.809 81.768C112.633 77.928 111.545 73.512 111.545 68.52C111.545 63.464 112.633 59.048 114.809 55.272C117.049 51.432 120.153 48.456 124.121 46.344C128.089 44.168 132.697 43.08 137.945 43.08C143.001 43.08 147.385 44.104 151.097 46.152C154.809 48.2 157.689 51.048 159.737 54.696C161.785 58.344 162.809 62.632 162.809 67.56C162.809 68.584 162.777 69.544 162.713 70.44C162.649 71.272 162.553 72.072 162.425 72.84H119.993V63.336H150.809L148.313 65.064C148.313 61.096 147.353 58.184 145.433 56.328C143.577 54.408 141.017 53.448 137.753 53.448C133.977 53.448 131.033 54.728 128.921 57.288C126.873 59.848 125.849 63.688 125.849 68.808C125.849 73.8 126.873 77.512 128.921 79.944C131.033 82.376 134.169 83.592 138.329 83.592C140.633 83.592 142.617 83.208 144.281 82.44C145.945 81.672 147.193 80.424 148.025 78.696H161.561C159.961 83.432 157.209 87.176 153.305 89.928C149.465 92.616 144.505 93.96 138.425 93.96ZM170.51 93V44.04H184.622V55.56H184.91V93H170.51ZM184.91 67.464L183.662 55.848C184.814 51.688 186.702 48.52 189.326 46.344C191.95 44.168 195.214 43.08 199.118 43.08C200.334 43.08 201.23 43.208 201.806 43.464V56.904C201.486 56.776 201.038 56.712 200.462 56.712C199.886 56.648 199.182 56.616 198.35 56.616C193.742 56.616 190.35 57.448 188.174 59.112C185.998 60.712 184.91 63.496 184.91 67.464ZM230.186 93.96C225.066 93.96 220.554 92.872 216.65 90.696C212.746 88.52 209.674 85.512 207.434 81.672C205.258 77.832 204.17 73.448 204.17 68.52C204.17 63.592 205.258 59.208 207.434 55.368C209.674 51.528 212.746 48.52 216.65 46.344C220.554 44.168 225.066 43.08 230.186 43.08C234.474 43.08 238.314 43.88 241.706 45.48C245.162 47.016 247.978 49.16 250.154 51.912C252.394 54.664 253.834 57.896 254.474 61.608H240.554C239.85 59.24 238.57 57.448 236.714 56.232C234.922 55.016 232.81 54.408 230.378 54.408C228.074 54.408 226.058 54.984 224.33 56.136C222.666 57.288 221.386 58.92 220.49 61.032C219.594 63.144 219.146 65.64 219.146 68.52C219.146 71.4 219.594 73.896 220.49 76.008C221.386 78.12 222.666 79.752 224.33 80.904C226.058 82.056 228.074 82.632 230.378 82.632C232.81 82.632 234.922 82.024 236.714 80.808C238.57 79.592 239.85 77.8 240.554 75.432H254.474C253.834 79.144 252.394 82.376 250.154 85.128C247.978 87.88 245.162 90.056 241.706 91.656C238.314 93.192 234.474 93.96 230.186 93.96ZM261.916 93V23.88H276.316V93H261.916ZM311.023 93.96C305.647 93.96 300.911 92.904 296.815 90.792C292.783 88.616 289.615 85.608 287.311 81.768C285.071 77.864 283.951 73.384 283.951 68.328C283.951 63.272 285.071 58.856 287.311 55.08C289.615 51.304 292.783 48.36 296.815 46.248C300.911 44.136 305.647 43.08 311.023 43.08C316.463 43.08 321.199 44.136 325.231 46.248C329.327 48.36 332.495 51.304 334.735 55.08C336.975 58.856 338.095 63.272 338.095 68.328C338.095 73.384 336.943 77.864 334.639 81.768C332.399 85.608 329.231 88.616 325.135 90.792C321.103 92.904 316.399 93.96 311.023 93.96ZM311.023 82.632C313.263 82.632 315.279 82.056 317.071 80.904C318.927 79.752 320.399 78.12 321.487 76.008C322.575 73.832 323.119 71.24 323.119 68.232C323.119 63.816 321.935 60.424 319.567 58.056C317.263 55.624 314.415 54.408 311.023 54.408C307.631 54.408 304.751 55.624 302.383 58.056C300.079 60.488 298.927 63.88 298.927 68.232C298.927 71.24 299.471 73.832 300.559 76.008C301.647 78.12 303.087 79.752 304.879 80.904C306.735 82.056 308.783 82.632 311.023 82.632ZM367.905 93.96C362.785 93.96 358.273 92.872 354.369 90.696C350.465 88.52 347.393 85.512 345.153 81.672C342.977 77.832 341.889 73.448 341.889 68.52C341.889 63.592 342.977 59.208 345.153 55.368C347.393 51.528 350.465 48.52 354.369 46.344C358.273 44.168 362.785 43.08 367.905 43.08C372.193 43.08 376.033 43.88 379.425 45.48C382.881 47.016 385.697 49.16 387.873 51.912C390.113 54.664 391.553 57.896 392.193 61.608H378.273C377.569 59.24 376.289 57.448 374.433 56.232C372.641 55.016 370.529 54.408 368.097 54.408C365.793 54.408 363.777 54.984 362.049 56.136C360.385 57.288 359.105 58.92 358.209 61.032C357.313 63.144 356.865 65.64 356.865 68.52C356.865 71.4 357.313 73.896 358.209 76.008C359.105 78.12 360.385 79.752 362.049 80.904C363.777 82.056 365.793 82.632 368.097 82.632C370.529 82.632 372.641 82.024 374.433 80.808C376.289 79.592 377.569 77.8 378.273 75.432H392.193C391.553 79.144 390.113 82.376 387.873 85.128C385.697 87.88 382.881 90.056 379.425 91.656C376.033 93.192 372.193 93.96 367.905 93.96ZM399.635 93V23.88H414.035V93H399.635ZM431.027 93L410.675 67.56L430.547 44.04H447.155L423.827 69.768L424.499 65.256L448.115 93H431.027Z" fill="black"/>
<circle cx="27.5" cy="69.5" r="27.5" fill="black"/>
<path d="M8.49585 78.0909V63.4316C8.49585 61.0525 11.1328 59.62 13.1287 60.915L26.2247 69.4119C27.2353 70.0675 28.54 70.0552 29.538 69.3804L41.8236 61.0736C43.8159 59.7266 46.504 61.1539 46.504 63.5589V78.0909C46.504 79.7477 45.1608 81.0909 43.504 81.0909H11.4958C9.839 81.0909 8.49585 79.7477 8.49585 78.0909Z" fill="white" stroke="black" stroke-width="4"/>
</svg>
